<?xml version="1.0" encoding="UTF-8"?>
<svg width="500px" height="128px" viewBox="0 0 500 128" version="1.1" xmlns="http://www.w3.org/2000/svg" xmlns:xlink="http://www.w3.org/1999/xlink">
    <title>planeta</title>
    <g id="Page-1" stroke="none" stroke-width="1" fill="none" fill-rule="evenodd">
        <g id="planeta" transform="translate(-26.000000, -161.000000)" fill="#000000" fill-rule="nonzero">
            <g transform="translate(26.000000, 161.000000)" id="Shape">
                <path d="M229.840922,102.852441 L228.56098,94.9899433 C226.915341,95.5384897 225.909673,95.5384897 225.086853,95.5384897 C221.886999,95.5384897 220.607058,94.2585482 220.607058,89.321631 L220.607058,18.9248491 L210.093253,18.9248491 L210.093253,94.0756994 C210.093253,100.475407 213.293107,105.229475 221.06418,105.229475 C224.081185,105.138051 226.641068,104.49808 229.840922,102.852441 Z M198.665204,49.5520205 C198.665204,33.6441763 188.151399,24.7760102 171.420735,24.7760102 L153.867252,24.7760102 L153.867252,103.858109 L164.563906,103.858109 L164.563906,75.333699 L170.140794,75.333699 C190.528433,75.333699 198.665204,62.260011 198.665204,49.5520205 Z M448.345219,99.3783141 L445.145365,92.1557872 C442.859755,93.8014262 439.202779,95.8127628 435.362955,95.8127628 C431.52313,95.8127628 429.786067,93.6185774 429.786067,88.9559334 L429.786067,55.494606 L443.865423,55.494606 L447.33955,46.9921375 L429.786067,46.9921375 L429.786067,30.9928689 L419.089413,34.284147 L419.089413,46.9921375 L409.581276,46.9921375 L409.581276,55.494606 L419.089413,55.494606 L419.089413,92.6129091 C419.089413,100.018285 423.020662,105.046626 431.888828,105.046626 C437.282867,105.138051 443.499726,102.852441 448.345219,99.3783141 Z M344.761382,103.858109 L344.761382,65.8255623 C344.761382,51.1976595 336.258914,45.6207716 327.939294,45.6207716 C320.076796,45.6207716 314.225635,48.8206253 307.734504,53.4832693 L306.454562,46.9921375 L297.586396,46.9921375 L297.586396,103.858109 L308.100201,103.858109 L308.100201,63.2656793 C312.579996,59.4258548 318.431157,55.4031816 324.648016,55.4031816 C333.05906,55.4031816 334.064728,62.8085573 334.064728,69.3911135 L334.064728,103.858109 L344.761382,103.858109 L344.761382,103.858109 Z M500,103.858109 C499.085756,101.846773 498.811483,97.9155239 498.811483,84.3847138 L498.811483,65.2770159 C498.811483,50.6491132 490.126166,45.5293472 478.240995,45.5293472 C470.835619,45.5293472 464.527336,46.9007131 457.396233,52.0204791 L461.418907,59.243006 C464.61876,56.9573962 469.281404,54.3060889 476.321082,54.3060889 C483.086487,54.3060889 488.023405,57.5059426 488.023405,66.2826842 L488.023405,68.4768696 L477.052478,68.7511428 C462.058877,69.2996892 453.739258,75.9736698 453.739258,87.4017188 C453.739258,98.3726458 461.876029,105.046626 471.567014,105.046626 C479.703785,105.046626 485.189248,101.755348 488.7548,98.4640702 L491.04041,103.766685 L500,103.766685 L500,103.858109 Z M403.730115,77.6193088 L403.730115,74.9680015 C403.730115,57.3230938 395.044798,45.6207716 380.234046,45.6207716 C365.697568,45.6207716 356.189431,58.3287621 356.189431,74.7851527 C356.189431,90.6929969 364.6919,105.138051 383.251051,105.138051 C389.833608,105.138051 397.147559,102.943865 402.084476,99.2868897 L399.158896,92.1557872 C395.227647,94.441397 390.29073,96.087036 385.262388,96.087036 C373.834339,96.087036 367.343207,87.8588407 367.343207,77.6193088 L403.730115,77.6193088 Z M283.689888,103.858109 C282.775645,101.846773 282.409947,97.9155239 282.409947,84.3847138 L282.409947,65.2770159 C282.409947,50.6491132 273.72463,45.5293472 261.930883,45.5293472 C254.525507,45.5293472 248.217224,46.9007131 241.086122,52.0204791 L245.017371,59.243006 C248.308649,56.9573962 253.062717,54.3060889 260.010971,54.3060889 C266.776376,54.3060889 271.713293,57.5059426 271.713293,66.2826842 L271.713293,68.4768696 L260.650942,68.7511428 C245.748766,69.2996892 237.52057,75.9736698 237.52057,87.4017188 C237.52057,98.3726458 245.657341,105.046626 255.348327,105.046626 C263.485098,105.046626 268.970561,101.755348 272.536113,98.4640702 L274.821722,103.766685 L283.689888,103.766685 L283.689888,103.858109 Z M187.420004,49.6434449 C187.420004,59.5172792 182.483086,66.2826842 171.055037,66.2826842 L164.563906,66.2826842 L164.563906,34.1012982 L170.415067,34.1012982 C181.751691,34.1927226 187.420004,40.5010057 187.420004,49.6434449 Z M392.576339,69.3911135 L367.251783,69.3911135 C367.251783,61.2543427 372.1887,54.2146645 380.051198,54.2146645 C388.370817,54.2146645 392.576339,61.9857378 392.576339,69.3911135 Z M488.023405,90.6015725 C485.737795,92.9786067 481.532273,96.1784604 474.949717,96.1784604 C468.092887,96.1784604 464.527336,91.9729384 464.527336,86.4874749 C464.527336,80.7277382 468.36716,77.6193088 477.783873,77.3450357 L488.114829,76.9793381 L488.114829,90.6015725 L488.023405,90.6015725 Z M271.804717,90.6015725 C269.427683,92.9786067 265.313586,96.1784604 258.731029,96.1784604 C251.782776,96.1784604 248.308649,91.9729384 248.308649,86.4874749 C248.308649,80.7277382 252.148473,77.6193088 261.565186,77.3450357 L271.896142,76.9793381 L271.896142,90.6015725 L271.804717,90.6015725 Z"></path>
                <path d="M86.0303529,114.646188 C79.1735235,117.663193 71.4938746,119.308832 63.5399525,119.308832 C55.6774547,119.308832 47.9978058,117.663193 41.3238252,114.737612 C41.3238252,114.737612 48.1806546,104.223807 63.7228012,104.223807 C78.9906747,104.223807 86.0303529,114.646188 86.0303529,114.646188 Z M127.079905,63.5399525 C127.079905,60.3400987 126.805632,57.140245 126.439934,54.1232401 C121.868715,23.4960688 95.4470653,0 63.5399525,0 C31.6328396,0 5.21119035,23.4960688 0.639970744,54.1232401 C0.274273176,57.140245 -1.29921875e-14,60.3400987 -1.29921875e-14,63.5399525 C-1.29921875e-14,71.7681477 1.55421466,79.7220698 4.47979521,86.9445968 C13.8050832,110.440666 36.7526056,127.079905 63.6313769,127.079905 C90.5101481,127.079905 113.457671,110.440666 122.782958,86.9445968 C125.52569,79.7220698 127.079905,71.7681477 127.079905,63.5399525 Z M85.3903822,12.0680197 C85.3903822,12.0680197 80.2706162,22.5818248 63.6313769,22.5818248 C46.9921375,22.5818248 40.7752788,12.5251417 40.7752788,12.5251417 C47.7235326,9.32528799 55.4031816,7.67964893 63.5399525,7.67964893 C71.2196014,7.67964893 78.6249771,9.23386359 85.3903822,12.0680197 Z M107.606509,29.3472298 C107.606509,29.3472298 91.881514,41.049552 63.6313769,41.049552 C35.2898153,41.049552 19.0162735,29.8957762 19.0162735,29.8957762 C23.1303712,24.4103127 28.1587127,19.8390931 33.9184494,16.1821174 C33.9184494,16.1821174 43.3351618,30.1700494 63.6313769,30.1700494 C83.8361675,30.1700494 92.3386359,16.1821174 92.3386359,16.1821174 C98.189797,19.6562443 103.492412,23.8617663 107.606509,29.3472298 Z M119.217407,59.4258548 L7.77107332,59.4258548 C7.86249771,57.6887914 8.0453465,55.8603035 8.41104407,54.1232401 C9.41671238,47.7235326 11.6108978,41.7809472 14.6279027,36.4783324 C14.6279027,36.4783324 35.0155421,48.729201 63.5399525,48.729201 C92.1557872,48.729201 111.903456,36.2954836 111.903456,36.2954836 C115.10331,41.7809472 117.388919,47.9063814 118.486012,54.2146645 C118.943134,55.9517279 119.034558,57.6887914 119.217407,59.4258548 Z M119.308832,67.1969281 C118.760285,74.1451819 117.023222,80.8191626 114.189066,86.9445968 C113.549095,88.2245383 112.909124,89.5959042 112.177729,90.8758457 C112.177729,90.8758457 109.343573,89.1387822 104.406656,86.9445968 C96.1784604,83.2876211 81.9162553,78.4421284 63.6313769,78.4421284 C45.6207716,78.4421284 31.4499909,83.1047724 23.2217956,86.9445968 C17.9191808,89.2302066 14.9936003,91.2415432 14.9936003,91.2415432 C14.2622052,89.8701774 13.4393856,88.3159627 12.7994149,86.9445968 C9.96525873,80.8191626 8.22819528,74.2366063 7.86249771,67.1969281 L119.308832,67.1969281 Z M107.606509,97.7326751 C103.675261,102.943865 98.7383434,107.423661 93.0700311,110.989212 C93.0700311,110.989212 83.5618943,96.7270068 63.5399525,96.7270068 C44.6151033,96.7270068 34.284147,111.263485 34.284147,111.263485 C28.4329859,107.697934 23.2217956,103.03529 19.1076979,97.6412507 C19.1076979,97.6412507 32.3642348,89.2302066 52.6604498,86.9445968 C56.1345767,86.3960505 59.6087036,86.3046261 63.4485281,86.3046261 C67.2883525,86.3046261 70.9453282,86.3960505 74.4194551,86.9445968 C95.2642165,89.2302066 107.606509,97.7326751 107.606509,97.7326751 Z"></path>
            </g>
        </g>
    </g>
</svg>